umbra-5.ufo
<glyph name="dollar" format="1">
  <advance width="449"/>
  <unicode hex="0024"/>
  <outline>
    <contour>
      <point x="316" y="262" type="curve" smooth="yes"/>
      <point x="316" y="322"/>
      <point x="83" y="325"/>
      <point x="83" y="475" type="curve" smooth="yes"/>
      <point x="83" y="554"/>
      <point x="139" y="605"/>
      <point x="217" y="621" type="curve"/>
      <point x="202" y="682" type="line"/>
      <point x="342" y="682" type="line"/>
      <point x="327" y="621" type="line"/>
      <point x="373" y="609"/>
      <point x="415" y="582"/>
      <point x="452" y="540" type="curve"/>
      <point x="412" y="430" type="line"/>
      <point x="372" y="468"/>
      <point x="324" y="507"/>
      <point x="276" y="507" type="curve" smooth="yes"/>
      <point x="248" y="507"/>
      <point x="238" y="493"/>
      <point x="238" y="475" type="curve" smooth="yes"/>
      <point x="238" y="415"/>
      <point x="461" y="408"/>
      <point x="461" y="264" type="curve" smooth="yes"/>
      <point x="461" y="159"/>
      <point x="396" y="114"/>
      <point x="313" y="101" type="curve"/>
      <point x="329" y="37" type="line"/>
      <point x="189" y="37" type="line"/>
      <point x="205" y="101" type="line"/>
      <point x="136" y="111"/>
      <point x="84" y="141"/>
      <point x="52" y="179" type="curve"/>
      <point x="92" y="294" type="line"/>
      <point x="132" y="256"/>
      <point x="201" y="222"/>
      <point x="249" y="222" type="curve" smooth="yes"/>
      <point x="287" y="222"/>
      <point x="316" y="231"/>
    </contour>
  </outline>
</glyph>
<glyph name="quotesingle" format="1">
  <advance width="220"/>
  <unicode hex="0027"/>
  <outline>
    <contour>
      <point x="82" y="352" type="line"/>
      <point x="82" y="612" type="line"/>
      <point x="212" y="612" type="line"/>
      <point x="212" y="472" type="line"/>
    </contour>
  </outline>
</glyph>
<glyph name="parenleft" format="1">
  <advance width="232"/>
  <unicode hex="0028"/>
  <outline>
    <contour>
      <point x="179" y="72" type="line"/>
      <point x="104" y="157"/>
      <point x="67" y="262"/>
      <point x="67" y="367" type="curve" smooth="yes"/>
      <point x="67" y="472"/>
      <point x="104" y="577"/>
      <point x="179" y="662" type="curve"/>
      <point x="269" y="662" type="line"/>
      <point x="219" y="587"/>
      <point x="195" y="477"/>
      <point x="195" y="367" type="curve" smooth="yes"/>
      <point x="195" y="257"/>
      <point x="219" y="147"/>
      <point x="269" y="72" type="curve"/>
    </contour>
  </outline>
</glyph>
<glyph name="plus" format="1">
  <advance width="560"/>
  <unicode hex="002B"/>
  <outline>
    <contour>
      <point x="122" y="302" type="line"/>
      <point x="122" y="412" type="line"/>
      <point x="247" y="412" type="line"/>
      <point x="247" y="532" type="line"/>
      <point x="387" y="532" type="line"/>
      <point x="387" y="412" type="line"/>
      <point x="512" y="412" type="line"/>
      <point x="512" y="302" type="line"/>
      <point x="387" y="302" type="line"/>
      <point x="387" y="182" type="line"/>
      <point x="247" y="182" type="line"/>
      <point x="247" y="302" type="line"/>
    </contour>
  </outline>
</glyph>
<glyph name="comma" format="1">
  <advance width="220"/>
  <unicode hex="002C"/>
  <outline>
    <contour>
      <point x="82" y="-8" type="line"/>
      <point x="82" y="252" type="line"/>
      <point x="212" y="252" type="line"/>
      <point x="212" y="112" type="line"/>
    </contour>
  </outline>
</glyph>
<glyph name="period" format="1">
  <advance width="291"/>
  <unicode hex="002E"/>
  <outline>
    <contour>
      <point x="182" y="84" type="line"/>
      <point x="77" y="189" type="line"/>
      <point x="182" y="295" type="line"/>
      <point x="288" y="189" type="line"/>
    </contour>
  </outline>
</glyph>
<glyph name="slash" format="1">
  <advance width="460"/>
  <unicode hex="002F"/>
  <outline>
    <contour>
      <point x="47" y="112" type="line"/>
      <point x="357" y="612" type="line"/>
      <point x="487" y="612" type="line"/>
      <point x="177" y="112" type="line"/>
    </contour>
  </outline>
</glyph>
<glyph name="zero" format="1">
  <advance width="510"/>
  <unicode hex="0030"/>
  <outline>
    <contour>
      <point x="67" y="362" type="curve" smooth="yes"/>
      <point x="67" y="511"/>
      <point x="137" y="632"/>
      <point x="292" y="632" type="curve" smooth="yes"/>
      <point x="447" y="632"/>
      <point x="517" y="511"/>
      <point x="517" y="362" type="curve" smooth="yes"/>
      <point x="517" y="213"/>
      <point x="447" y="92"/>
      <point x="292" y="92" type="curve" smooth="yes"/>
      <point x="137" y="92"/>
      <point x="67" y="213"/>
    </contour>
    <contour>
      <point x="212" y="362" type="curve" smooth="yes"/>
      <point x="212" y="269"/>
      <point x="240" y="217"/>
      <point x="292" y="217" type="curve" smooth="yes"/>
      <point x="344" y="217"/>
      <point x="372" y="269"/>
      <point x="372" y="362" type="curve" smooth="yes"/>
      <point x="372" y="455"/>
      <point x="344" y="507"/>
      <point x="292" y="507" type="curve" smooth="yes"/>
      <point x="240" y="507"/>
      <point x="212" y="455"/>
    </contour>
  </outline>
</glyph>
<glyph name="two" format="1">
  <advance width="458"/>
  <unicode hex="0032"/>
  <outline>
    <contour>
      <point x="460" y="455" type="curve" smooth="yes"/>
      <point x="460" y="359"/>
      <point x="347" y="296"/>
      <point x="263" y="234" type="curve"/>
      <point x="457" y="234" type="line"/>
      <point x="457" y="114" type="line"/>
      <point x="67" y="114" type="line"/>
      <point x="67" y="264"/>
      <point x="315" y="387"/>
      <point x="315" y="457" type="curve" smooth="yes"/>
      <point x="315" y="478"/>
      <point x="296" y="502"/>
      <point x="248" y="502" type="curve" smooth="yes"/>
      <point x="200" y="502"/>
      <point x="151" y="463"/>
      <point x="111" y="425" type="curve"/>
      <point x="71" y="540" type="line"/>
      <point x="111" y="587"/>
      <point x="171" y="622"/>
      <point x="268" y="622" type="curve" smooth="yes"/>
      <point x="345" y="622"/>
      <point x="460" y="582"/>
    </contour>
  </outline>
</glyph>
<glyph name="colon" format="1">
  <advance width="291"/>
  <unicode hex="003A"/>
  <outline>
    <contour>
      <point x="182" y="369" type="line"/>
      <point x="77" y="474" type="line"/>
      <point x="182" y="580" type="line"/>
      <point x="288" y="474" type="line"/>
    </contour>
    <contour>
      <point x="182" y="84" type="line"/>
      <point x="77" y="189" type="line"/>
      <point x="182" y="295" type="line"/>
      <point x="288" y="189" type="line"/>
    </contour>
  </outline>
</glyph>
<glyph name="equal" format="1">
  <advance width="560"/>
  <unicode hex="003D"/>
  <outline>
    <contour>
      <point x="122" y="222" type="line"/>
      <point x="122" y="332" type="line"/>
      <point x="512" y="332" type="line"/>
      <point x="512" y="222" type="line"/>
    </contour>
    <contour>
      <point x="122" y="402" type="line"/>
      <point x="122" y="512" type="line"/>
      <point x="512" y="512" type="line"/>
      <point x="512" y="402" type="line"/>
    </contour>
  </outline>
</glyph>
<glyph name="question" format="1">
  <advance width="464"/>
  <unicode hex="003F"/>
  <outline>
    <contour>
      <point x="204" y="316" type="line"/>
      <point x="174" y="416" type="line"/>
      <point x="244" y="416" type="line" smooth="yes"/>
      <point x="292" y="416"/>
      <point x="301" y="441"/>
      <point x="301" y="469" type="curve" smooth="yes"/>
      <point x="301" y="492"/>
      <point x="287" y="507"/>
      <point x="259" y="507" type="curve" smooth="yes"/>
      <point x="211" y="507"/>
      <point x="163" y="468"/>
      <point x="123" y="430" type="curve"/>
      <point x="83" y="540" type="line"/>
      <point x="133" y="597"/>
      <point x="193" y="627"/>
      <point x="260" y="627" type="curve" smooth="yes"/>
      <point x="367" y="627"/>
      <point x="452" y="582"/>
      <point x="452" y="485" type="curve" smooth="yes"/>
      <point x="452" y="410"/>
      <point x="404" y="377"/>
      <point x="329" y="366" type="curve"/>
      <point x="314" y="316" type="line"/>
    </contour>
    <contour>
      <point x="262" y="84" type="line"/>
      <point x="157" y="189" type="line"/>
      <point x="262" y="295" type="line"/>
      <point x="368" y="189" type="line"/>
    </contour>
  </outline>
</glyph>
<glyph name="C" format="1">
  <advance width="515"/>
  <unicode hex="0043"/>
  <outline>
    <contour>
      <point x="212" y="362" type="curve" smooth="yes"/>
      <point x="212" y="269"/>
      <point x="285" y="217"/>
      <point x="342" y="217" type="curve" smooth="yes"/>
      <point x="403" y="217"/>
      <point x="447" y="240"/>
      <point x="472" y="273" type="curve"/>
      <point x="512" y="146" type="line"/>
      <point x="480" y="114"/>
      <point x="433" y="92"/>
      <point x="352" y="92" type="curve" smooth="yes"/>
      <point x="177" y="92"/>
      <point x="67" y="213"/>
      <point x="67" y="362" type="curve" smooth="yes"/>
      <point x="67" y="511"/>
      <point x="177" y="632"/>
      <point x="352" y="632" type="curve" smooth="yes"/>
      <point x="433" y="632"/>
      <point x="480" y="610"/>
      <point x="512" y="578" type="curve"/>
      <point x="472" y="451" type="line"/>
      <point x="447" y="484"/>
      <point x="403" y="507"/>
      <point x="342" y="507" type="curve" smooth="yes"/>
      <point x="285" y="507"/>
      <point x="212" y="455"/>
    </contour>
  </outline>
</glyph>
<glyph name="H" format="1">
  <advance width="560"/>
  <unicode hex="0048"/>
  <outline>
    <contour>
      <point x="82" y="112" type="line"/>
      <point x="82" y="612" type="line"/>
      <point x="222" y="612" type="line"/>
      <point x="222" y="422" type="line"/>
      <point x="412" y="422" type="line"/>
      <point x="412" y="612" type="line"/>
      <point x="552" y="612" type="line"/>
      <point x="552" y="112" type="line"/>
      <point x="412" y="112" type="line"/>
      <point x="412" y="302" type="line"/>
      <point x="222" y="302" type="line"/>
      <point x="222" y="112" type="line"/>
    </contour>
  </outline>
</glyph>
<glyph name="J" format="1">
  <advance width="319"/>
  <unicode hex="004A"/>
  <outline>
    <contour>
      <point x="171" y="122" type="curve" smooth="yes"/>
      <point x="171" y="612" type="line"/>
      <point x="311" y="612" type="line"/>
      <point x="311" y="82" type="line" smooth="yes"/>
      <point x="311" y="-15"/>
      <point x="221" y="-70"/>
      <point x="144" y="-70" type="curve" smooth="yes"/>
      <point x="77" y="-70"/>
      <point x="37" y="-50"/>
      <point x="-13" y="-3" type="curve"/>
      <point x="37" y="102" type="line"/>
      <point x="77" y="64"/>
      <point x="106" y="50"/>
      <point x="124" y="50" type="curve" smooth="yes"/>
      <point x="152" y="50"/>
      <point x="171" y="64"/>
    </contour>
  </outline>
</glyph>
<glyph name="O" format="1">
  <advance width="610"/>
  <unicode hex="004F"/>
  <outline>
    <contour>
      <point x="67" y="362" type="curve" smooth="yes"/>
      <point x="67" y="511"/>
      <point x="167" y="632"/>
      <point x="342" y="632" type="curve" smooth="yes"/>
      <point x="517" y="632"/>
      <point x="617" y="511"/>
      <point x="617" y="362" type="curve" smooth="yes"/>
      <point x="617" y="213"/>
      <point x="517" y="92"/>
      <point x="342" y="92" type="curve" smooth="yes"/>
      <point x="167" y="92"/>
      <point x="67" y="213"/>
    </contour>
    <contour>
      <point x="212" y="362" type="curve" smooth="yes"/>
      <point x="212" y="269"/>
      <point x="280" y="217"/>
      <point x="342" y="217" type="curve" smooth="yes"/>
      <point x="404" y="217"/>
      <point x="472" y="269"/>
      <point x="472" y="362" type="curve" smooth="yes"/>
      <point x="472" y="455"/>
      <point x="404" y="507"/>
      <point x="342" y="507" type="curve" smooth="yes"/>
      <point x="280" y="507"/>
      <point x="212" y="455"/>
    </contour>
  </outline>
</glyph>
<glyph name="V" format="1">
  <advance width="580"/>
  <unicode hex="0056"/>
  <outline>
    <contour>
      <point x="607" y="612" type="line"/>
      <point x="407" y="112" type="line"/>
      <point x="247" y="112" type="line"/>
      <point x="47" y="612" type="line"/>
      <point x="197" y="612" type="line"/>
      <point x="327" y="251" type="line"/>
      <point x="457" y="612" type="line"/>
    </contour>
  </outline>
</glyph>
<glyph name="W" format="1">
  <advance width="880"/>
  <unicode hex="0057"/>
  <outline>
    <contour>
      <point x="897" y="612" type="line"/>
      <point x="707" y="112" type="line"/>
      <point x="547" y="112" type="line"/>
      <point x="479" y="307" type="line"/>
      <point x="407" y="112" type="line"/>
      <point x="247" y="112" type="line"/>
      <point x="57" y="612" type="line"/>
      <point x="207" y="612" type="line"/>
      <point x="331" y="247" type="line"/>
      <point x="418" y="465" type="line"/>
      <point x="357" y="612" type="line"/>
      <point x="517" y="612" type="line"/>
      <point x="629" y="264" type="line"/>
      <point x="747" y="612" type="line"/>
    </contour>
  </outline>
</glyph>
<glyph name="X" format="1">
  <advance width="620"/>
  <unicode hex="0058"/>
  <outline>
    <contour>
      <point x="637" y="112" type="line"/>
      <point x="467" y="112" type="line"/>
      <point x="347" y="266" type="line"/>
      <point x="227" y="112" type="line"/>
      <point x="57" y="112" type="line"/>
      <point x="262" y="375" type="line"/>
      <point x="77" y="612" type="line"/>
      <point x="247" y="612" type="line"/>
      <point x="347" y="484" type="line"/>
      <point x="447" y="612" type="line"/>
      <point x="617" y="612" type="line"/>
      <point x="432" y="375" type="line"/>
    </contour>
  </outline>
</glyph>
<glyph name="Z" format="1">
  <advance width="580"/>
  <unicode hex="005A"/>
  <outline>
    <contour>
      <point x="117" y="497" type="line"/>
      <point x="117" y="612" type="line"/>
      <point x="607" y="612" type="line"/>
      <point x="311" y="232" type="line"/>
      <point x="567" y="232" type="line"/>
      <point x="567" y="112" type="line"/>
      <point x="57" y="112" type="line"/>
      <point x="357" y="497" type="line"/>
    </contour>
  </outline>
</glyph>
<glyph name="backslash" format="1">
  <advance width="460"/>
  <unicode hex="005C"/>
  <outline>
    <contour>
      <point x="487" y="112" type="line"/>
      <point x="357" y="112" type="line"/>
      <point x="47" y="612" type="line"/>
      <point x="177" y="612" type="line"/>
    </contour>
  </outline>
</glyph>
<glyph name="a" format="1">
  <advance width="434"/>
  <unicode hex="0061"/>
  <outline>
    <contour>
      <point x="296" y="310" type="curve"/>
      <point x="296" y="324" type="line" smooth="yes"/>
      <point x="296" y="382"/>
      <point x="287" y="402"/>
      <point x="239" y="402" type="curve" smooth="yes"/>
      <point x="221" y="402"/>
      <point x="172" y="392"/>
      <point x="132" y="364" type="curve"/>
      <point x="82" y="434" type="line"/>
      <point x="142" y="471"/>
      <point x="212" y="507"/>
      <point x="289" y="507" type="curve" smooth="yes"/>
      <point x="376" y="507"/>
      <point x="431" y="451"/>
      <point x="431" y="354" type="curve" smooth="yes"/>
      <point x="431" y="112" type="line"/>
      <point x="296" y="112" type="line"/>
      <point x="296" y="152" type="line"/>
      <point x="270" y="124"/>
      <point x="231" y="102"/>
      <point x="179" y="102" type="curve" smooth="yes"/>
      <point x="122" y="102"/>
      <point x="57" y="127"/>
      <point x="57" y="224" type="curve" smooth="yes"/>
      <point x="57" y="301"/>
      <point x="117" y="337"/>
      <point x="194" y="337" type="curve" smooth="yes"/>
      <point x="236" y="337"/>
      <point x="270" y="325"/>
    </contour>
    <contour>
      <point x="296" y="245" type="line"/>
      <point x="286" y="253"/>
      <point x="273" y="263"/>
      <point x="244" y="263" type="curve" smooth="yes"/>
      <point x="216" y="263"/>
      <point x="202" y="241"/>
      <point x="202" y="223" type="curve" smooth="yes"/>
      <point x="202" y="205"/>
      <point x="211" y="178"/>
      <point x="239" y="178" type="curve" smooth="yes"/>
      <point x="263" y="178"/>
      <point x="283" y="190"/>
      <point x="296" y="205" type="curve"/>
    </contour>
  </outline>
</glyph>
<glyph name="b" format="1">
  <advance width="499"/>
  <unicode hex="0062"/>
  <outline>
    <contour>
      <point x="77" y="112" type="line"/>
      <point x="77" y="642" type="line"/>
      <point x="212" y="642" type="line"/>
      <point x="212" y="458" type="line"/>
      <point x="243" y="489"/>
      <point x="284" y="507"/>
      <point x="329" y="507" type="curve" smooth="yes"/>
      <point x="436" y="507"/>
      <point x="501" y="421"/>
      <point x="501" y="304" type="curve" smooth="yes"/>
      <point x="501" y="187"/>
      <point x="436" y="102"/>
      <point x="329" y="102" type="curve" smooth="yes"/>
      <point x="284" y="102"/>
      <point x="243" y="122"/>
      <point x="212" y="154" type="curve"/>
      <point x="212" y="112" type="line"/>
    </contour>
    <contour>
      <point x="212" y="245" type="line"/>
      <point x="231" y="221"/>
      <point x="260" y="207"/>
      <point x="289" y="207" type="curve" smooth="yes"/>
      <point x="337" y="207"/>
      <point x="366" y="246"/>
      <point x="366" y="304" type="curve" smooth="yes"/>
      <point x="366" y="362"/>
      <point x="337" y="402"/>
      <point x="289" y="402" type="curve" smooth="yes"/>
      <point x="260" y="402"/>
      <point x="231" y="387"/>
      <point x="212" y="363" type="curve"/>
    </contour>
  </outline>
</glyph>
<glyph name="e" format="1">
  <advance width="469"/>
  <unicode hex="0065"/>
  <outline>
    <contour>
      <point x="77" y="304" type="curve" smooth="yes"/>
      <point x="77" y="431"/>
      <point x="162" y="507"/>
      <point x="279" y="507" type="curve" smooth="yes"/>
      <point x="396" y="507"/>
      <point x="471" y="431"/>
      <point x="471" y="324" type="curve"/>
      <point x="229" y="235" type="line"/>
      <point x="245" y="215"/>
      <point x="268" y="202"/>
      <point x="299" y="202" type="curve" smooth="yes"/>
      <point x="342" y="202"/>
      <point x="369" y="226"/>
      <point x="391" y="260" type="curve"/>
      <point x="451" y="167" type="line"/>
      <point x="415" y="123"/>
      <point x="357" y="102"/>
      <point x="289" y="102" type="curve" smooth="yes"/>
      <point x="172" y="102"/>
      <point x="77" y="177"/>
    </contour>
    <contour>
      <point x="355" y="378" type="line"/>
      <point x="340" y="398"/>
      <point x="316" y="411"/>
      <point x="282" y="411" type="curve" smooth="yes"/>
      <point x="227" y="411"/>
      <point x="205" y="365"/>
      <point x="202" y="320" type="curve"/>
    </contour>
  </outline>
</glyph>
<glyph name="g" format="1">
  <advance width="489"/>
  <unicode hex="0067"/>
  <outline>
    <contour>
      <point x="351" y="170" type="line"/>
      <point x="320" y="140"/>
      <point x="279" y="122"/>
      <point x="234" y="122" type="curve" smooth="yes"/>
      <point x="127" y="122"/>
      <point x="72" y="207"/>
      <point x="72" y="314" type="curve" smooth="yes"/>
      <point x="72" y="421"/>
      <point x="127" y="507"/>
      <point x="234" y="507" type="curve" smooth="yes"/>
      <point x="279" y="507"/>
      <point x="320" y="491"/>
      <point x="351" y="462" type="curve"/>
      <point x="351" y="497" type="line"/>
      <point x="486" y="497" type="line"/>
      <point x="486" y="72" type="line" smooth="yes"/>
      <point x="486" y="-25"/>
      <point x="391" y="-80"/>
      <point x="304" y="-80" type="curve" smooth="yes"/>
      <point x="227" y="-80"/>
      <point x="157" y="-55"/>
      <point x="97" y="-18" type="curve"/>
      <point x="137" y="82" type="line"/>
      <point x="187" y="44"/>
      <point x="246" y="30"/>
      <point x="284" y="30" type="curve" smooth="yes"/>
      <point x="332" y="30"/>
      <point x="351" y="44"/>
      <point x="351" y="102" type="curve" smooth="yes"/>
    </contour>
    <contour>
      <point x="351" y="370" type="line"/>
      <point x="332" y="391"/>
      <point x="303" y="402"/>
      <point x="274" y="402" type="curve" smooth="yes"/>
      <point x="226" y="402"/>
      <point x="207" y="362"/>
      <point x="207" y="314" type="curve" smooth="yes"/>
      <point x="207" y="266"/>
      <point x="226" y="227"/>
      <point x="274" y="227" type="curve" smooth="yes"/>
      <point x="303" y="227"/>
      <point x="332" y="238"/>
      <point x="351" y="259" type="curve"/>
    </contour>
  </outline>
</glyph>
<glyph name="j" format="1">
  <advance width="277"/>
  <unicode hex="006A"/>
  <outline>
    <contour>
      <point x="111" y="497" type="line"/>
      <point x="246" y="497" type="line"/>
      <point x="246" y="16" type="line" smooth="yes"/>
      <point x="246" y="-81"/>
      <point x="161" y="-136"/>
      <point x="84" y="-136" type="curve" smooth="yes"/>
      <point x="17" y="-136"/>
      <point x="-13" y="-121"/>
      <point x="-63" y="-74" type="curve"/>
      <point x="-23" y="26" type="line"/>
      <point x="17" y="-12"/>
      <point x="46" y="-26"/>
      <point x="64" y="-26" type="curve" smooth="yes"/>
      <point x="92" y="-26"/>
      <point x="111" y="-12"/>
      <point x="111" y="46" type="curve" smooth="yes"/>
    </contour>
    <contour>
      <point x="178" y="554" type="line"/>
      <point x="83" y="649" type="line"/>
      <point x="178" y="745" type="line"/>
      <point x="274" y="649" type="line"/>
    </contour>
  </outline>
</glyph>
<glyph name="p" format="1">
  <advance width="499"/>
  <unicode hex="0070"/>
  <outline>
    <contour>
      <point x="77" y="497" type="line"/>
      <point x="212" y="497" type="line"/>
      <point x="212" y="455" type="line"/>
      <point x="243" y="487"/>
      <point x="284" y="507"/>
      <point x="329" y="507" type="curve" smooth="yes"/>
      <point x="436" y="507"/>
      <point x="501" y="422"/>
      <point x="501" y="305" type="curve" smooth="yes"/>
      <point x="501" y="188"/>
      <point x="436" y="102"/>
      <point x="329" y="102" type="curve" smooth="yes"/>
      <point x="284" y="102"/>
      <point x="243" y="120"/>
      <point x="212" y="151" type="curve"/>
      <point x="212" y="-33" type="line"/>
      <point x="77" y="-33" type="line"/>
    </contour>
    <contour>
      <point x="212" y="246" type="line"/>
      <point x="231" y="222"/>
      <point x="260" y="207"/>
      <point x="289" y="207" type="curve" smooth="yes"/>
      <point x="337" y="207"/>
      <point x="366" y="247"/>
      <point x="366" y="305" type="curve" smooth="yes"/>
      <point x="366" y="363"/>
      <point x="337" y="402"/>
      <point x="289" y="402" type="curve" smooth="yes"/>
      <point x="260" y="402"/>
      <point x="231" y="388"/>
      <point x="212" y="364" type="curve"/>
    </contour>
  </outline>
</glyph>
<glyph name="q" format="1">
  <advance width="499"/>
  <unicode hex="0071"/>
  <outline>
    <contour>
      <point x="501" y="497" type="line"/>
      <point x="501" y="-33" type="line"/>
      <point x="366" y="-33" type="line"/>
      <point x="366" y="151" type="line"/>
      <point x="335" y="120"/>
      <point x="294" y="102"/>
      <point x="249" y="102" type="curve" smooth="yes"/>
      <point x="142" y="102"/>
      <point x="77" y="188"/>
      <point x="77" y="305" type="curve" smooth="yes"/>
      <point x="77" y="422"/>
      <point x="142" y="507"/>
      <point x="249" y="507" type="curve" smooth="yes"/>
      <point x="294" y="507"/>
      <point x="335" y="487"/>
      <point x="366" y="455" type="curve"/>
      <point x="366" y="497" type="line"/>
    </contour>
    <contour>
      <point x="366" y="364" type="line"/>
      <point x="347" y="388"/>
      <point x="318" y="402"/>
      <point x="289" y="402" type="curve" smooth="yes"/>
      <point x="241" y="402"/>
      <point x="212" y="363"/>
      <point x="212" y="305" type="curve" smooth="yes"/>
      <point x="212" y="247"/>
      <point x="241" y="207"/>
      <point x="289" y="207" type="curve" smooth="yes"/>
      <point x="318" y="207"/>
      <point x="347" y="222"/>
      <point x="366" y="246" type="curve"/>
    </contour>
  </outline>
</glyph>
<glyph name="r" format="1">
  <advance width="374"/>
  <unicode hex="0072"/>
  <outline>
    <contour>
      <point x="411" y="434" type="curve"/>
      <point x="336" y="334" type="line"/>
      <point x="316" y="362"/>
      <point x="307" y="382"/>
      <point x="269" y="382" type="curve" smooth="yes"/>
      <point x="250" y="382"/>
      <point x="229" y="370"/>
      <point x="212" y="352" type="curve"/>
      <point x="212" y="112" type="line"/>
      <point x="77" y="112" type="line"/>
      <point x="77" y="497" type="line"/>
      <point x="192" y="497" type="line"/>
      <point x="201" y="422" type="line"/>
      <point x="230" y="470"/>
      <point x="272" y="502"/>
      <point x="309" y="502" type="curve" smooth="yes"/>
      <point x="366" y="502"/>
      <point x="391" y="461"/>
    </contour>
  </outline>
</glyph>
<glyph name="t" format="1">
  <advance width="325"/>
  <unicode hex="0074"/>
  <outline>
    <contour>
      <point x="57" y="397" type="line"/>
      <point x="57" y="497" type="line"/>
      <point x="127" y="497" type="line"/>
      <point x="127" y="562" type="line"/>
      <point x="262" y="622" type="line"/>
      <point x="262" y="497" type="line"/>
      <point x="342" y="497" type="line"/>
      <point x="342" y="397" type="line"/>
      <point x="262" y="397" type="line"/>
      <point x="262" y="112" type="line"/>
      <point x="127" y="112" type="line"/>
      <point x="127" y="397" type="line"/>
    </contour>
  </outline>
</glyph>
<glyph name="y" format="1">
  <advance width="470"/>
  <unicode hex="0079"/>
  <outline>
    <contour>
      <point x="217" y="143" type="line"/>
      <point x="47" y="497" type="line"/>
      <point x="202" y="497" type="line"/>
      <point x="276" y="294" type="line"/>
      <point x="357" y="497" type="line"/>
      <point x="497" y="497" type="line"/>
      <point x="277" y="-33" type="line"/>
      <point x="147" y="-33" type="line"/>
    </contour>
  </outline>
</glyph>
<glyph name="quoteright" format="1">
  <advance width="220"/>
  <unicode hex="2019"/>
  <outline>
    <contour>
      <point x="82" y="352" type="line"/>
      <point x="82" y="612" type="line"/>
      <point x="212" y="612" type="line"/>
      <point x="212" y="472" type="line"/>
    </contour>
  </outline>
</glyph>
<glyph name="quotedblright" format="1">
  <advance width="430"/>
  <unicode hex="201D"/>
  <outline>
    <contour>
      <point x="292" y="352" type="line"/>
      <point x="292" y="612" type="line"/>
      <point x="422" y="612" type="line"/>
      <point x="422" y="472" type="line"/>
    </contour>
    <contour>
      <point x="82" y="352" type="line"/>
      <point x="82" y="612" type="line"/>
      <point x="212" y="612" type="line"/>
      <point x="212" y="472" type="line"/>
    </contour>
  </outline>
</glyph>
